<svg xmlns="http://www.w3.org/2000/svg" viewBox="0 0 2000 2000"><defs><style>.cls-1{fill:#f1f2f2;}.cls-2{fill:#0e100b;}.cls-3{fill:#231e1e;}.cls-4{fill:#090909;}.cls-5{fill:#dcc5a1;}.cls-6{fill:#edd9b5;}.cls-7{fill:#d9bfa0;}.cls-8{fill:#ccae8b;}.cls-9{fill:#241f1e;}.cls-10{fill:#9d9c99;}.cls-11{fill:#777571;}.cls-12{fill:#938b7d;}.cls-13{fill:#908879;}.cls-14{fill:#9e9687;}.cls-15{fill:#b4a995;}.cls-16{fill:#908878;}.cls-17{fill:#91897a;}.cls-18{fill:#918a79;}.cls-19{fill:#928a7a;}.cls-20{fill:#938c7e;}.cls-21{fill:#928b7b;}.cls-22{fill:#a69d8c;}.cls-23{fill:#a1998b;}.cls-24{fill:#7f7d79;}.cls-25{fill:#dcc5a0;}.cls-26{fill:#edd9b4;}.cls-27{fill:#ccad8b;}.cls-28{fill:#c8aa88;}.cls-29{fill:#88745f;}.cls-30{fill:#6a5b4b;}.cls-31{fill:#bc9f82;}.cls-32{fill:none;}</style></defs><g id="Layer_2" data-name="Layer 2"><g id="Layer_1-2" data-name="Layer 1"><ellipse class="cls-1" cx="1049.78" cy="1719.07" rx="347.27" ry="184.86"/><path class="cls-2" d="M610.36,2000q-.29-28.2,1.82-56.33c1.12-15.24,2.46-30.46,4.4-45.58a624.6,624.6,0,0,1,11.45-62.8A480,480,0,0,1,668.27,1725a337.63,337.63,0,0,1,71.41-94.4,272.47,272.47,0,0,1,51.16-37.72c3.12-1.76,4.64-1.27,6.93,1.11a593.57,593.57,0,0,0,126.91,100.29c27.25,16,55.75,29.27,86.38,37.88,28.7,8.06,56.68,6.18,84.76-2.5,27.62-8.55,53.47-20.92,78.25-35.54A603.53,603.53,0,0,0,1291.81,1603c4-4,8.86-7.43,11.19-13l-.08.1c10.74,4.19,19.9,11,29.1,17.69,49.32,35.71,84.65,82.66,109.66,137.73,17.38,38.28,29,78.35,36.24,119.73,4.11,23.34,7.23,46.76,9,70.4q2.47,32.13,2.87,64.32Z"/><path class="cls-3" d="M609.3,887.08c1.47-1.41.78-2.84.39-4.54-5.15-22.19-10.06-44.44-13.07-67-4.56-34.16-7.13-68.51-5.85-103,2.81-75.6,20.69-147.33,56.72-214.11a628.56,628.56,0,0,1,82.25-118.25c46.18-52.28,101.06-93.39,161.59-127.36a558.66,558.66,0,0,1,52.26-26.16,14.7,14.7,0,0,1,2.36-.34L915.43,258.8c1.05.93,1.67,0,2.43-.63,33.92-26.61,72.08-45.37,112-61,19-7.42,38.47-13.08,58.63-15.58,35.28-4.37,69.72-1.32,102.25,14.46,1.3.63,2.82,1,3.77,2.82-23.78,0-46.81,2.56-67.87,15.61,2.87,1.62,4.68-.5,6.75-.73s4.12-1.12,6.21-1.55c17.87-3.62,35.71-2.59,53.33,1.32,39.08,8.66,74.6,25.62,107.17,48.54,27.44,19.32,49.79,43.92,69.55,70.95,15.08,20.62,28.39,42.46,43.76,62.87,14.35,19.05,30.68,35.82,51.83,47.29,17.07,9.25,35.47,14.91,54.37,18.91a134.09,134.09,0,0,0,32.11,3.07c19.42-.63,37.61-5.71,52.84-19.61-13.16,23.08-30.29,42.77-52.2,57.89-22.22,15.34-47,22.47-74.59,19.44,7.67,25.71,14.62,51,20.32,76.52,5,22.43,9.33,44.94,11.84,67.83,2.69,24.46,2.17,48.81,0,73.24-2.39,27.27-6.36,54.36-9,81.59-2.13,22-4.63,44-5.27,66.09-.09,3.31-.67,6.62-1,9.92-2.05-.26-2.07-2-2.22-3.39-.5-4.36-3.24-6.22-7.15-7.21a291.7,291.7,0,0,0-37.32-6.66c-13.2-1.58-26.29-4.21-39.66-4.31-1.65,0-3.37-.07-4.52-1.59,3.43-6.08,1.2-12.38.37-18.47a513.07,513.07,0,0,0-32.77-123.86c-11.15-27.47-25.34-53.24-44.08-76.32-13.49-16.61-29.12-30.71-48.72-39.79-13.92-6.45-28.7-10.07-44-9.75-19.25.4-37.2,6.58-54.85,13.93-22,9.15-41.75,22.12-61.89,34.5-10.63,6.54-21.18,13.18-32.55,18.51s-23,7.76-35.37,6.67c-18.34-2.74-33.22-12.34-46.92-24.05-25.55-21.86-53.57-39.61-85.36-50.81-27.2-9.58-55.07-14.16-83.94-8.91-25.19,4.59-46.68,16.31-65.15,33.75-23,21.73-38.49,48.23-49.32,77.75-10.18,27.74-15.35,56.49-18.66,85.71-2.91,25.71-3.28,51.48-2.79,77.3,0,1.28.42,2.7-.94,3.65-9.92,2.3-20.12,2.32-30.14,3.82-17.59,2.65-35.37,4.11-52.64,8.7C612.48,887.67,610.85,888.32,609.3,887.08Z"/><path class="cls-4" d="M1403.88,874.28c6.06,1.88,12.37.81,18.57,1.67,21.66,3,43.46,5.12,64.75,10.4,4.49,1.12,6.85,3.75,6.65,8.48,0,1.15-.16,2.35.82,3.25a283.6,283.6,0,0,1,1.09,34.85c-.16,4,.13,8.39-3.8,11.21-1.77,3.77-5.18,6-8.29,8.35-9.14,7-15.15,15.91-17.26,27.45-1.31,7.15-2.93,14.26-4.32,21.41-5.24,23.39-10.38,46.82-18,69.6a309.14,309.14,0,0,1-13.81,34.26c-9.72,20.6-24.1,36.57-45.28,45.83-23.61,10.42-48.4,15-74.1,16.62a234,234,0,0,1-84.72-10.26c-53-16.46-92.94-48.9-117.85-98.91-8.88-17.82-14.45-36.86-18.59-56.33a196,196,0,0,0-6.37-24.15c-4.87-13.91-13.76-22.58-29.21-23-20.19-1-30.61,3-37.69,19-5.18,11.74-7,24.29-10,36.56C988.06,1086,942.81,1136.14,868,1158.56a227.67,227.67,0,0,1-71,9.72c-30.48-.72-60.32-5.44-88.08-19.17-27.39-13.44-40-38.32-50.15-65-10.95-28.71-17.52-58.6-23.71-88.58-1.2-5.78-3.73-11.41-2.88-17.55-1.17-11-7.93-18.56-15.95-25.26-3.06-2.55-6.05-5.23-9.32-7.47a10,10,0,0,1-4.39-7.94,220,220,0,0,1,1.68-44.71c.46-3.43,2-5,5.1-5.5,28.91-7.67,58.56-10.3,88.19-13.07,1.51-2.28,3.94-2.17,6.25-2.4a819.36,819.36,0,0,1,100.66-3.94c50,1.09,99.74,4.53,148.18,18.33,16.17,4.61,32.37,9.15,48.42,14.14s32.18,8.42,49.06,7.51c20.11,1.42,38.86-4.77,57.63-10.57,30.91-9.54,62.11-17.87,94.09-22.94,17.44-2.77,35-3.73,52.67-4.68,23.11-1.25,46.22-2.28,69.36-1.82,24.45.48,48.87,1.7,73.21,4.19C1399.45,872.08,1402.07,872.14,1403.88,874.28Z"/><path class="cls-3" d="M928.16,1508.3c-14.8-10.87-28.63-22.75-38.48-38.52-5.5-8.81-8.19-18.65-9.51-28.93-.76-5.95-.9-11.92-1.19-17.89-1.62-5.91-1.14-12-1.2-18,.64-18.09,3.2-35.79,10.59-52.52a20,20,0,0,1,3.49-6q4-4.15,5.68,1.26a23.9,23.9,0,0,1,1,5.39c2.67,32.76,19,56.45,47.71,71.91,20.36,11,42.36,16.55,65.12,19.61a283.92,283.92,0,0,0,37.74,3.05c33-.15,65.36-4.35,96.11-17,20.47-8.45,37.63-21.1,48.71-40.89a88.11,88.11,0,0,0,10.73-37.07c.24-3.08-.56-7.56,2.85-8.3,3.73-.82,5,3.65,6.43,6.54,6.21,12.74,8.75,26.46,10.42,40.38a130.24,130.24,0,0,1,1.17,18.41c.47,4.19-.81,8.19-1.28,12.28-.48,10.09-.71,20.21-3.36,30-4.06,15-12.86,27.06-23.72,37.77a181.81,181.81,0,0,1-25.09,20.38c-1.49,2.58-4.06,3.89-6.45,5.35a355.73,355.73,0,0,1-63.82,30.21,392.12,392.12,0,0,1-43.77,13.47c-2.92.69-5.82,1.43-8.86.92a404.27,404.27,0,0,1-98.27-36.78c-6.75-3.6-13.21-7.7-19.64-11.83A13.58,13.58,0,0,1,928.16,1508.3Z"/><path class="cls-5" d="M884.39,1566.81c11.76-1.11,19.86-7.71,26.27-17,8.75-12.61,13.62-26.88,17.5-41.56,13.14,8.08,26.39,15.94,40.4,22.49a426.07,426.07,0,0,0,77.29,27.23c1.11.28,2.18.74,3.27,1.12,1.54,1.58,1.59,3.61,1.6,5.61q.09,62.67,0,125.35c0,2.83.7,6.94-4.61,6l-2.07-.23a14.89,14.89,0,0,0-6.77-.15,178.41,178.41,0,0,1-35.07-8.45c-1.43-1.39-3.48-1.38-5.13-2.27a27.38,27.38,0,0,1-9.9-3.7c-1.36-1.47-3.44-1.37-5-2.3-8.9-2.69-16.86-7.36-24.94-11.78-1.44-1.59-3.5-2.17-5.28-3.2-6-2.27-11.18-6.16-16.62-9.47a323.38,323.38,0,0,1-34.06-23.27,20.17,20.17,0,0,0-4-3.27l0,0a33,33,0,0,0-4.11-3l-.88-.69a16.24,16.24,0,0,0-4.16-3.31l-.84-.64a15.1,15.1,0,0,0-4.14-3.36l-.86-.66a15.91,15.91,0,0,0-4.13-3.35l-.87-.69a27.55,27.55,0,0,0-5.09-4.3l-1.9-1.61a15.37,15.37,0,0,0-4.1-3.39l-3.9-3.63c-2-1.88-3.72-4-6.17-5.37-3.84-3.68-7.62-7.44-11.55-11"/><path class="cls-6" d="M1046.06,1696.14c3.29.09,3.06-2.19,3.06-4.43,0-12.62,0-25.25,0-37.88q0-47.34,0-94.69c12.1-1.25,23.58-5.07,35.06-8.77,30.4-9.79,59.63-22.18,86.5-39.71a5.92,5.92,0,0,1,1.36-.48c4.19,14.78,9.52,29,18.74,41.55,6.69,9.12,15.33,14.21,26.67,15.37,12.64,1.3,24.44,6,36.25,10.37,3.44,1.29,1.56,2.79.12,4.27a457.55,457.55,0,0,1-35,31.93,507.85,507.85,0,0,1-65.45,46.29c-26.93,16.06-55.25,29.06-86.37,34.81C1060.15,1696,1053.13,1697,1046.06,1696.14Z"/><path class="cls-7" d="M1224.21,1422q0-6.49,0-13c.87-2.19,2.83-3.2,4.7-4.27a329.87,329.87,0,0,0,82.34-66.51c37.65-42,62-90.62,69.4-147.1,1.78-13.67,3.3-27.37,4.11-41.14,7.9-4.84,16.45-8.64,23.3-15.16,10.83-10.3,17.76-23.13,23.89-36.49,13-28.27,20-58.36,26.88-88.48.67-2.91,1.38-5.81,2.07-8.71a23.3,23.3,0,0,1,6.86-7.75c8.48-6.57,14.83-14.64,18-25.07.49-1.63.57-3.75,2.87-4.24,7.18-1.94,14.18-4.21,21.86-4.22,21.65,0,37.72,9.52,48.54,27.79,12,20.2,13.09,42.05,8.32,64.56-4.13,19.43-13.94,35.76-27.29,50.13-23.71,25.51-52.29,43.4-85.29,54.31-1.58.52-3.31,1.54-4.77,1.25-7.48-1.44-8.34,3.32-9.5,8.88-9,42.54-26.52,81.4-51.09,117.1a340.21,340.21,0,0,1-33.06,40.53c-36.84,39-79.78,69.59-128.31,92.3C1225.19,1418,1225.58,1420.34,1224.21,1422Z"/><path class="cls-8" d="M879,1404.07q0,9.45,0,18.9c-.63-3-2.72-4.52-5.39-5.75a410.11,410.11,0,0,1-90.09-56.79c-54.19-44.82-94.24-99.53-115.13-167.3-3.21-10.44-5.35-21.22-7.9-31.86-.36-1.46-.15-3-2.38-3-12.87-.36-24-6.31-35.24-11.54a193.53,193.53,0,0,1-55.8-39.76c-14.84-15-26.37-32.19-30.89-53.19-5.13-23.77-4.58-47,9.12-68.24,17.55-27.18,51.35-33.95,77.49-15.7,3.38,2.36,6.29,5.41,9.41,8.14,3.57,11.92,5.35,24.25,8.18,36.34,6.57,28.13,13.33,56.22,25.17,82.7,7.44,16.61,16,32.59,31.61,43.32,3.94,2.72,8.14,5.07,12.22,7.58,3.55,5.9,2.66,12.63,3.12,19,4.19,57.34,22.35,109.29,58.37,154.62,27.83,35,61.63,62.91,100.34,85a32.66,32.66,0,0,0,5.18,2.85C877.83,1407.83,875.94,1404.71,879,1404.07Z"/><path class="cls-9" d="M1488.56,964.08c-3.74,16.46-15.24,27.11-27.68,37.06,2-9.5,3.45-19.16,6.11-28.48,2.87-10.07,10.14-17.2,18.39-23.33,2.24-1.66,4.39-3.46,6.58-5.19Q1490.25,954.12,1488.56,964.08Z"/><path class="cls-10" d="M1287.82,1581.35c-2.58.54-4.38-.64-5.88-2.49Z"/><path class="cls-11" d="M1303,1590c-2.8-.11-4.65-2.17-6.83-3.52,2.65.42,5.22,1,6.75,3.62Z"/><path class="cls-12" d="M856,1594.05a8.24,8.24,0,0,1,6.17,5.37A17.92,17.92,0,0,1,856,1594.05Z"/><path class="cls-13" d="M872.1,1608.05a6.21,6.21,0,0,1,5.09,4.3A10.21,10.21,0,0,1,872.1,1608.05Z"/><path class="cls-14" d="M951.86,1664.06c2.25.26,4.35.76,5.28,3.19C955.17,1666.54,953.2,1665.82,951.86,1664.06Z"/><path class="cls-15" d="M1037.22,1695.76a6.62,6.62,0,0,1,6.78.15Z"/><path class="cls-16" d="M866.1,1603.05a4.23,4.23,0,0,1,4.1,3.39A7.11,7.11,0,0,1,866.1,1603.05Z"/><path class="cls-17" d="M878.06,1613a4.19,4.19,0,0,1,4.13,3.35A7.26,7.26,0,0,1,878.06,1613Z"/><path class="cls-18" d="M883.05,1617.05a4.19,4.19,0,0,1,4.14,3.36A7.34,7.34,0,0,1,883.05,1617.05Z"/><path class="cls-19" d="M888,1621.05a4.26,4.26,0,0,1,4.16,3.31A7,7,0,0,1,888,1621.05Z"/><path class="cls-20" d="M893.07,1625.05a4.2,4.2,0,0,1,4.11,3A5.88,5.88,0,0,1,893.07,1625.05Z"/><path class="cls-21" d="M897.14,1628.05a4.21,4.21,0,0,1,4,3.27A6.31,6.31,0,0,1,897.14,1628.05Z"/><path class="cls-22" d="M982.08,1679c2,0,4,.22,5,2.3C985.27,1681,983.4,1680.58,982.08,1679Z"/><path class="cls-23" d="M997,1685c2.05,0,4,.17,5.13,2.27C1000.32,1686.84,998.39,1686.57,997,1685Z"/><path class="cls-24" d="M837.56,1575.19c-1.83-.81-2.64-1.56-3-2.85C836.32,1572.1,836.71,1573.34,837.56,1575.19Z"/><path class="cls-25" d="M1050.09,909.21c-15.82,1.15-30.94-2.16-46-6.54-28.34-8.22-56.48-17.21-85.49-23a481.31,481.31,0,0,0-65.66-8.34c-29.06-1.74-58.16-2.66-87.28-1.88-22.77.62-45.53,1.5-68.14,4.57a7,7,0,0,1-.8-3.85c-1.58-45.3,1.43-90.22,12.55-134.28,8.39-33.22,21.65-64.27,43.82-91,29.78-35.84,67.28-54.69,114.44-51.58,31.24,2.06,60,12.33,87.26,27.53a310.89,310.89,0,0,1,50.58,35.52c13.06,11.2,27.53,19.81,44.78,22.88,1.82,1.88,1.61,4.3,1.61,6.6q.06,108.36,0,216.71C1051.74,904.92,1051.75,907.28,1050.09,909.21Z"/><path class="cls-26" d="M1050.09,909.21l0-229.94c19.27,1.59,35.62-6.33,51.54-15.75,19.61-11.6,38.26-24.82,58.59-35.16,19.59-10,39.73-18.81,61.7-21.92,24.09-3.4,46.63,1.83,67.43,14.29,24,14.39,41.32,35.35,56.1,58.59,25.39,39.92,40.51,84,51.34,129.65A427.64,427.64,0,0,1,1407,870.38c.23,2.6-.1,4.22-3.16,3.9-47.56-5.78-95.28-5.58-143.07-4-53.57,1.82-105.31,13.05-156.18,29.23-14.85,4.72-29.76,9.5-45.59,9.8C1056.06,909.4,1053.07,909.26,1050.09,909.21Z"/><path class="cls-25" d="M879,1404.07c-1.78,2.13-.16,4.88-1.44,7.64-6.52-3.79-13-7.4-19.33-11.26a335.78,335.78,0,0,1-76-63.1c-28.75-32.26-49.95-68.92-61.25-111-4.57-17-6.83-34.36-8.78-51.78q-1.49-13.3-2.92-26.62c22.14,10.49,45.55,16,69.88,18,34.78,2.92,68.74-1,101.54-13,59.92-21.75,99.4-63.44,119.23-123.93,4.35-13.28,6.92-27,10.09-40.56a78.28,78.28,0,0,1,7.82-20.4c3.53-6.35,8.39-11,15.8-12.62,6.82-1.47,13.6-3,20.63-1.52-2.61,2.81-2.63,6.28-2.63,9.82,0,27.81.15,55.62,0,83.43-.09,14-.14,27.92-.78,41.88-.42,9.12-.13,18.29-.13,27.44q-.09,161.37-.08,322.74c0,3.25.84,6.72-1.58,9.61-36.36-.8-71.91-5.54-104.46-23.2-29.08-15.79-45.17-40.29-47.82-73.46-.19-2.35.5-6.51-1.38-6.72-3.25-.36-4.14,3.63-5.32,6.25C882.64,1368.37,880.08,1386.06,879,1404.07Z"/><path class="cls-26" d="M1049.12,1448.88q0-169.7.14-339.38c0-9.69.11-19.43.53-29.16.94-21.81.3-43.7.3-65.55,0-18.66.08-37.32-.08-56,0-3.37.87-5,4.34-4.85,16,.4,25.27,7.9,30.78,24.76,5.31,16.28,7.67,33.31,12.87,49.63,19.43,61,59.14,102.69,119.18,124.56,34.24,12.47,69.66,16.23,106,12.53a224.31,224.31,0,0,0,61.55-15.46c1.92,1.55,1.28,3.75,1.1,5.59-2.92,29.14-5.66,58.28-15.64,86.19a285.22,285.22,0,0,1-48,85.55c-27.45,33.5-60.37,60.44-98,81.69-.77-18-2.76-35.79-9.32-52.76-1.66-4.27-3.19-8.69-7.51-11.71-2.08,5.19-1.26,10.43-2,15.44-4.53,29.16-20.06,50.51-45.41,65-21.11,12-44.22,17.84-68.07,21.1C1077.68,1448,1063.47,1449.51,1049.12,1448.88Z"/><path class="cls-26" d="M1388.91,1120.09c-11.9,12.13-26.9,17.91-43.21,20.83-40.94,7.32-81.51,6.12-121.09-7.3-45.11-15.31-76.13-45.68-92.59-90.49-12.37-33.68-16-68.09-7.15-103.33,1.73-6.88,5.92-11.71,11.48-15.71,10-7.19,21.39-11.44,33-14.91,49-14.63,99.18-18.32,150-14.27,23,1.83,46,4,68.39,10.09a74.4,74.4,0,0,1,19.2,8.08,10.78,10.78,0,0,1,1.08,7.73,444,444,0,0,0-6.21,53.5c-.75,16.27-1.07,32.6.35,48.87a42,42,0,0,1-.12,10.45c-3.88,17.24-5.71,34.78-7.66,52.3-1.07,9.59-2.34,19.15-3.07,28.78C1391.17,1116.85,1390,1118.41,1388.91,1120.09Z"/><path class="cls-25" d="M699.76,908.26c42.53-12.8,86.18-15.56,130.24-14.43,33.37.86,66.19,5.53,98.21,15.18a163.93,163.93,0,0,1,27.63,11.3c10.87,5.59,17.21,14,19.24,26.17,8.29,49.63-1.32,95.41-30.5,136.4-19.33,27.15-46.64,43.67-78.26,53.1-28.2,8.41-57.09,10.51-86.38,8.46-15.64-1.09-31.11-3.17-45.9-8.47a66.62,66.62,0,0,1-27.79-18.78c-2.82-5.53-2.27-11.64-2.86-17.53-1.47-14.65-3.76-29.21-4.65-43.93,2.5-27.73,2.18-55.53,1.87-83.32-.19-16.62-1.4-33.22-2.56-49.82C697.71,917.81,696.08,912.65,699.76,908.26Z"/><path class="cls-3" d="M699.76,908.26c-1.49,4.25-.51,8.6-.18,12.84a982.35,982.35,0,0,1,2.63,100.34c-.28,11.47-1.33,22.92-2,34.38-.32,10.6-1.65,21-6.22,30.72-1.15,2.43-1.85,5.49-5.46,5.59-3.72-4.85-5.16-10.86-8.17-16.07,1.22-1.77-.53-3.23-.5-4.87-3.16-15.27-5.32-30.77-10.88-45.44-.79-1.47-.5-3.35-1.74-4.65-2.17-4.2-.81-8.79-1.26-13.17-2-19.78-3.4-39.6,1-59.31C671.26,929.71,682.32,916.42,699.76,908.26Z"/><path class="cls-3" d="M1401.05,1034.05c-.81-14.42-1.39-28.84-1.29-43.29.16-23.47,3-46.65,6.64-69.77.41-2.6.38-5.27.56-7.91,16.46,10.64,23.35,26.67,26,45.33a160.44,160.44,0,0,1,.69,34.82c-2.3,30.23-6.13,60.28-19,88.28-.69,1.51-.22,3.39-1.66,4.58-3.49-3-4.09-7.5-5.3-11.53a219.08,219.08,0,0,1-6.82-32.09C1400.45,1039.65,1401,1036.86,1401.05,1034.05Z"/><path class="cls-7" d="M1401.05,1034.05c2.06,13,3.79,26.16,7.65,38.84,1.35,4.42,2.84,8.8,4.27,13.2-6,11.94-12.53,23.59-22.5,32.84a18,18,0,0,1-1.56,1.16c1-8.19,2.12-16.37,3-24.58,2.05-20.21,4.27-40.4,8.25-60.34C1400.2,1034.75,1400.73,1034.42,1401.05,1034.05Z"/><path class="cls-27" d="M688.5,1092.13c6.63-7.24,7.79-16.58,9.75-25.6.78-3.54,1.29-7.13,1.93-10.71,1.66,14.87,3.4,29.73,5,44.61.58,5.56.75,11.17,1.11,16.76A87.49,87.49,0,0,1,688.5,1092.13Z"/><path class="cls-28" d="M669.18,1024.22c6.66,15.26,9.66,31.38,11.24,47.84.14.27.23.54.11.71-.28.44-.65.26-1,.06-5.16-15.54-9.54-31.27-11.41-47.6C667.82,1024.21,668.25,1024,669.18,1024.22Z"/><path class="cls-29" d="M669.18,1024.22l-1.06,1c-1.14-1.19-.79-2.71-.91-4.13C669.47,1021.13,668.43,1023.24,669.18,1024.22Z"/><path class="cls-30" d="M679.53,1072.83l.89-.77c1.09,1.36,1.53,2.7-.09,4C680.07,1075,679.8,1073.91,679.53,1072.83Z"/><path class="cls-31" d="M1549,1031.85c-1.18,24.77-9.49,46-29.3,62.27-9.23,7.58-18.11,15.62-28,22.33a87.86,87.86,0,0,1-31,13.17c-6,1.29-10.67-1.21-11.45-7.14-1.4-10.55-.93-21,5.94-30,3.59-4.7,8.63-7.87,13.37-11.08,15.62-10.58,19.15-28.68,7.16-42.66-8.64-10.08-8.65-29-1.06-40,13.27-19.24,46.51-24.42,64.21.41A51.53,51.53,0,0,1,1549,1031.85Z"/><path class="cls-31" d="M554,1025.28c-.59-8.57,4.38-21.13,15.24-31.64,12.44-12,27.55-14.54,43.49-7.49,13,5.76,20.15,15.73,21.28,29.39.67,8.16-.64,16.61-6.8,23.2-9.31,10-9.1,27,.27,37,5.69,6.11,13.1,10,19.2,15.74,6.79,6.36,9.75,25.3,6,33.78-1.94,4.38-5.74,5.25-10,4.39-16-3.25-29.77-11-42.31-21.16-7.61-6.14-15.19-12.31-22.24-19.12C561.75,1073.6,554.56,1054.13,554,1025.28Z"/><rect class="cls-32" width="2000" height="2000"/></g></g></svg>