<svg xmlns="http://www.w3.org/2000/svg" viewBox="0 0 2000 2000"><defs><style>.cls-1{fill:#f1f2f2;}.cls-2{fill:#0e100b;}.cls-3{fill:#231e1e;}.cls-4{fill:#090909;}.cls-5{fill:#dcc5a1;}.cls-6{fill:#edd9b5;}.cls-7{fill:#d9bfa0;}.cls-8{fill:#ccae8b;}.cls-9{fill:#241f1e;}.cls-10{fill:#9d9c99;}.cls-11{fill:#777571;}.cls-12{fill:#938b7d;}.cls-13{fill:#908879;}.cls-14{fill:#9e9687;}.cls-15{fill:#b4a995;}.cls-16{fill:#908878;}.cls-17{fill:#91897a;}.cls-18{fill:#918a79;}.cls-19{fill:#928a7a;}.cls-20{fill:#938c7e;}.cls-21{fill:#928b7b;}.cls-22{fill:#a69d8c;}.cls-23{fill:#a1998b;}.cls-24{fill:#7f7d79;}.cls-25{fill:#dcc5a0;}.cls-26{fill:#edd9b4;}.cls-27{fill:#ccad8b;}.cls-28{fill:#c8aa88;}.cls-29{fill:#88745f;}.cls-30{fill:#6a5b4b;}.cls-31{fill:#bc9f82;}.cls-32{fill:none;}</style></defs><g id="Layer_2" data-name="Layer 2"><g id="Layer_1-2" data-name="Layer 1"><ellipse class="cls-1" cx="1719.07" cy="1013.22" rx="184.86" ry="347.27"/><path class="cls-2" d="M2000,1452.64q-28.2.28-56.33-1.82c-15.24-1.12-30.46-2.46-45.58-4.4a624.6,624.6,0,0,1-62.8-11.45A480,480,0,0,1,1725,1394.73a337.63,337.63,0,0,1-94.4-71.41,272.47,272.47,0,0,1-37.72-51.16c-1.76-3.12-1.27-4.64,1.11-6.93a593.57,593.57,0,0,0,100.29-126.91c16-27.25,29.27-55.75,37.88-86.38,8.06-28.7,6.18-56.68-2.5-84.76-8.55-27.62-20.92-53.47-35.54-78.25A603.53,603.53,0,0,0,1603,771.19c-4-4-7.43-8.86-13-11.19l.1.08c4.19-10.74,11-19.9,17.69-29.1,35.71-49.32,82.66-84.65,137.73-109.66,38.28-17.38,78.35-29,119.73-36.24,23.34-4.11,46.76-7.23,70.4-9.05q32.13-2.47,64.32-2.87Z"/><path class="cls-3" d="M887.08,1453.7c-1.41-1.47-2.84-.78-4.54-.39-22.19,5.15-44.44,10.06-67,13.07-34.16,4.56-68.51,7.13-103,5.85-75.6-2.81-147.33-20.69-214.11-56.72a628.56,628.56,0,0,1-118.25-82.25c-52.28-46.18-93.39-101.06-127.36-161.59a558.66,558.66,0,0,1-26.16-52.26,14.7,14.7,0,0,1-.34-2.36l32.51,30.52c.93-1,0-1.67-.63-2.43-26.61-33.92-45.37-72.08-61-112-7.42-19-13.08-38.47-15.58-58.63-4.37-35.28-1.32-69.72,14.46-102.25.63-1.3,1-2.82,2.82-3.77,0,23.78,2.56,46.81,15.61,67.87,1.62-2.87-.5-4.68-.73-6.75s-1.12-4.12-1.55-6.21c-3.62-17.87-2.59-35.71,1.32-53.33,8.66-39.08,25.62-74.6,48.54-107.17C281.4,735.45,306,713.1,333,693.34c20.62-15.08,42.46-28.39,62.87-43.76,19.05-14.35,35.82-30.68,47.29-51.83,9.25-17.07,14.91-35.47,18.91-54.37a134.09,134.09,0,0,0,3.07-32.11c-.63-19.42-5.71-37.61-19.61-52.84,23.08,13.16,42.77,30.29,57.89,52.2,15.34,22.22,22.47,47,19.44,74.59,25.71-7.67,51-14.62,76.52-20.32,22.43-5,44.94-9.33,67.83-11.84,24.46-2.69,48.81-2.17,73.24,0,27.27,2.39,54.36,6.36,81.59,9,22,2.13,44,4.63,66.09,5.27,3.31.09,6.62.67,9.92,1-.26,2-2,2.07-3.39,2.22-4.36.5-6.22,3.24-7.21,7.15A291.7,291.7,0,0,0,880.82,615c-1.58,13.2-4.21,26.29-4.31,39.66,0,1.65-.07,3.37-1.59,4.52-6.08-3.43-12.38-1.2-18.47-.37A513.07,513.07,0,0,0,732.59,691.6c-27.47,11.15-53.24,25.34-76.32,44.08-16.61,13.49-30.71,29.12-39.79,48.72-6.45,13.92-10.07,28.7-9.75,44,.4,19.25,6.58,37.2,13.93,54.85,9.15,22,22.12,41.75,34.5,61.89,6.54,10.63,13.18,21.18,18.51,32.55s7.76,22.95,6.67,35.37c-2.74,18.34-12.34,33.22-24.05,46.92-21.86,25.55-39.61,53.57-50.81,85.36-9.58,27.2-14.16,55.07-8.91,83.94,4.59,25.19,16.31,46.68,33.75,65.15,21.73,23,48.23,38.49,77.75,49.32,27.74,10.18,56.49,15.35,85.71,18.66,25.71,2.91,51.48,3.28,77.3,2.79,1.28,0,2.7-.42,3.65.94,2.3,9.92,2.32,20.12,3.82,30.14,2.65,17.59,4.11,35.37,8.7,52.64C887.67,1450.52,888.32,1452.15,887.08,1453.7Z"/><path class="cls-4" d="M874.28,659.12c1.88-6.06.81-12.37,1.67-18.57,3-21.66,5.12-43.46,10.4-64.75,1.12-4.49,3.75-6.85,8.48-6.65,1.15.05,2.35.16,3.25-.82a283.6,283.6,0,0,1,34.85-1.09c4,.16,8.39-.13,11.21,3.8,3.77,1.77,6,5.18,8.35,8.29,7,9.14,15.91,15.15,27.45,17.26,7.15,1.31,14.26,2.93,21.41,4.32,23.39,5.24,46.82,10.38,69.6,18a309.14,309.14,0,0,1,34.26,13.81c20.6,9.72,36.57,24.1,45.83,45.28,10.42,23.61,15,48.4,16.62,74.1a234,234,0,0,1-10.26,84.72c-16.46,53-48.9,92.94-98.91,117.85-17.82,8.88-36.86,14.45-56.33,18.59A196,196,0,0,0,978,979.61c-13.91,4.87-22.58,13.76-23,29.21-1,20.19,3,30.61,19,37.69,11.74,5.18,24.29,7,36.56,10,75.33,18.45,125.51,63.7,147.93,138.56a227.67,227.67,0,0,1,9.72,71c-.72,30.48-5.44,60.32-19.17,88.08-13.44,27.39-38.32,40-65,50.15-28.71,11-58.6,17.52-88.58,23.71-5.78,1.2-11.41,3.73-17.55,2.88-11,1.17-18.56,7.93-25.26,16-2.55,3.06-5.23,6-7.47,9.32a10,10,0,0,1-7.94,4.39,220,220,0,0,1-44.71-1.68c-3.43-.46-5-2-5.5-5.1-7.67-28.91-10.3-58.56-13.07-88.19-2.28-1.51-2.17-3.94-2.4-6.25a819.36,819.36,0,0,1-3.94-100.66c1.09-50,4.53-99.74,18.33-148.18,4.61-16.17,9.15-32.37,14.14-48.42s8.42-32.18,7.51-49.06c1.42-20.11-4.77-38.86-10.57-57.63-9.54-30.91-17.87-62.11-22.94-94.09-2.77-17.44-3.73-35.05-4.68-52.67-1.25-23.11-2.28-46.22-1.82-69.36.48-24.45,1.7-48.87,4.19-73.21C872.08,663.55,872.14,660.93,874.28,659.12Z"/><path class="cls-3" d="M1508.3,1134.84c-10.87,14.8-22.75,28.63-38.52,38.48-8.81,5.5-18.65,8.19-28.93,9.51-5.95.76-11.92.9-17.89,1.19-5.91,1.62-12,1.14-18,1.2-18.09-.64-35.79-3.2-52.52-10.59a20,20,0,0,1-6-3.49q-4.15-4,1.26-5.68a23.9,23.9,0,0,1,5.39-1c32.76-2.67,56.45-19,71.91-47.71,11-20.36,16.55-42.36,19.61-65.12a283.92,283.92,0,0,0,3.05-37.74c-.15-33-4.35-65.36-17-96.11-8.45-20.47-21.1-37.63-40.89-48.71a88.11,88.11,0,0,0-37.07-10.73c-3.08-.24-7.56.56-8.3-2.85-.82-3.73,3.65-5,6.54-6.43,12.74-6.21,26.46-8.75,40.38-10.42a130.24,130.24,0,0,1,18.41-1.17c4.19-.47,8.19.81,12.28,1.28,10.09.48,20.21.71,30,3.36,15,4.06,27.06,12.86,37.77,23.72A181.81,181.81,0,0,1,1510.18,891c2.58,1.49,3.89,4.06,5.35,6.45a355.73,355.73,0,0,1,30.21,63.82,392.12,392.12,0,0,1,13.47,43.77c.69,2.92,1.43,5.82.92,8.86a404.27,404.27,0,0,1-36.78,98.27c-3.6,6.75-7.7,13.21-11.83,19.64A13.58,13.58,0,0,1,1508.3,1134.84Z"/><path class="cls-5" d="M1566.81,1178.61c-1.11-11.76-7.71-19.86-17-26.27-12.61-8.75-26.88-13.62-41.56-17.5,8.08-13.14,15.94-26.39,22.49-40.4a426.07,426.07,0,0,0,27.23-77.29c.28-1.11.74-2.18,1.12-3.27,1.58-1.54,3.61-1.59,5.61-1.6q62.67-.09,125.35.05c2.83,0,6.94-.7,6,4.61-.08.69-.15,1.38-.23,2.07a14.89,14.89,0,0,0-.15,6.77,178.41,178.41,0,0,1-8.45,35.07c-1.39,1.43-1.38,3.48-2.27,5.13a27.38,27.38,0,0,1-3.7,9.9c-1.47,1.36-1.37,3.44-2.3,5-2.69,8.9-7.36,16.86-11.78,24.94-1.59,1.44-2.17,3.5-3.2,5.28-2.27,6-6.16,11.18-9.47,16.62a323.38,323.38,0,0,1-23.27,34.06,20.17,20.17,0,0,0-3.27,4l0,0a33,33,0,0,0-3,4.11l-.69.88a16.24,16.24,0,0,0-3.31,4.16l-.64.84a15.1,15.1,0,0,0-3.36,4.14l-.66.86a15.91,15.91,0,0,0-3.35,4.13l-.69.87a27.55,27.55,0,0,0-4.3,5.09l-1.61,1.9a15.37,15.37,0,0,0-3.39,4.1l-3.63,3.9c-1.88,2-4,3.72-5.37,6.17-3.68,3.84-7.44,7.62-11,11.55"/><path class="cls-6" d="M1696.14,1016.94c.09-3.29-2.19-3.06-4.43-3.06-12.62,0-25.25,0-37.88,0h-94.69c-1.25-12.1-5.07-23.58-8.77-35.06-9.79-30.4-22.18-59.63-39.71-86.5a5.92,5.92,0,0,1-.48-1.36c14.78-4.19,29-9.52,41.55-18.74,9.12-6.69,14.21-15.33,15.37-26.67,1.3-12.64,6-24.44,10.37-36.25,1.29-3.44,2.79-1.56,4.27-.12a457.55,457.55,0,0,1,31.93,35A507.85,507.85,0,0,1,1660,909.61C1676,936.54,1689,964.86,1694.77,996,1696,1002.85,1697,1009.87,1696.14,1016.94Z"/><path class="cls-7" d="M1422,838.79l-13,0c-2.19-.87-3.2-2.83-4.27-4.7a329.87,329.87,0,0,0-66.51-82.34c-42-37.65-90.62-62-147.1-69.4-13.67-1.78-27.37-3.3-41.14-4.11-4.84-7.9-8.64-16.45-15.16-23.3-10.3-10.83-23.13-17.76-36.49-23.89-28.27-13-58.36-20-88.48-26.88-2.91-.67-5.81-1.38-8.71-2.07a23.3,23.3,0,0,1-7.75-6.86c-6.57-8.48-14.64-14.83-25.07-18-1.63-.49-3.75-.57-4.24-2.87-1.94-7.18-4.21-14.18-4.22-21.86,0-21.65,9.52-37.72,27.79-48.54,20.2-12,42.05-13.09,64.56-8.32,19.43,4.13,35.76,13.94,50.13,27.29,25.51,23.71,43.4,52.29,54.31,85.29.52,1.58,1.54,3.31,1.25,4.77-1.44,7.48,3.32,8.34,8.88,9.5,42.54,8.95,81.4,26.52,117.1,51.09a340.21,340.21,0,0,1,40.53,33.06c39,36.84,69.59,79.78,92.3,128.31C1418,837.81,1420.34,837.42,1422,838.79Z"/><path class="cls-8" d="M1404.07,1184l18.9,0c-3,.63-4.52,2.72-5.75,5.39a410.11,410.11,0,0,1-56.79,90.09c-44.82,54.19-99.53,94.24-167.3,115.13-10.44,3.21-21.22,5.35-31.86,7.9-1.46.36-3,.15-3,2.38-.36,12.87-6.31,24-11.54,35.24A193.53,193.53,0,0,1,1107,1496c-15,14.84-32.19,26.37-53.19,30.89-23.77,5.13-47,4.58-68.24-9.12-27.18-17.55-33.95-51.35-15.7-77.49,2.36-3.38,5.41-6.29,8.14-9.41,11.92-3.57,24.25-5.35,36.34-8.18,28.13-6.57,56.22-13.33,82.7-25.17,16.61-7.44,32.59-16,43.32-31.61,2.72-3.94,5.07-8.14,7.58-12.22,5.9-3.55,12.63-2.66,19-3.12,57.34-4.19,109.29-22.35,154.62-58.37,35-27.83,62.91-61.63,85-100.34a32.66,32.66,0,0,0,2.85-5.18C1407.83,1185.17,1404.71,1187.06,1404.07,1184Z"/><path class="cls-9" d="M964.08,574.44c16.46,3.74,27.11,15.24,37.06,27.68-9.5-2-19.16-3.45-28.48-6.11-10.07-2.87-17.2-10.14-23.33-18.39-1.66-2.24-3.46-4.39-5.19-6.58Z"/><path class="cls-10" d="M1581.35,775.18c.54,2.58-.64,4.38-2.49,5.88Z"/><path class="cls-11" d="M1590,760c-.11,2.8-2.17,4.65-3.52,6.83.42-2.65,1-5.22,3.62-6.75Z"/><path class="cls-12" d="M1594.05,1207a8.24,8.24,0,0,1,5.37-6.17A17.92,17.92,0,0,1,1594.05,1207Z"/><path class="cls-13" d="M1608.05,1190.9a6.21,6.21,0,0,1,4.3-5.09A10.21,10.21,0,0,1,1608.05,1190.9Z"/><path class="cls-14" d="M1664.06,1111.14c.26-2.25.76-4.35,3.19-5.28C1666.54,1107.83,1665.82,1109.8,1664.06,1111.14Z"/><path class="cls-15" d="M1695.76,1025.78a6.62,6.62,0,0,1,.15-6.78Z"/><path class="cls-16" d="M1603.05,1196.9a4.23,4.23,0,0,1,3.39-4.1A7.11,7.11,0,0,1,1603.05,1196.9Z"/><path class="cls-17" d="M1613,1184.94a4.19,4.19,0,0,1,3.35-4.13A7.26,7.26,0,0,1,1613,1184.94Z"/><path class="cls-18" d="M1617.05,1180a4.19,4.19,0,0,1,3.36-4.14A7.34,7.34,0,0,1,1617.05,1180Z"/><path class="cls-19" d="M1621.05,1175a4.26,4.26,0,0,1,3.31-4.16A7,7,0,0,1,1621.05,1175Z"/><path class="cls-20" d="M1625.05,1169.93a4.2,4.2,0,0,1,3-4.11A5.88,5.88,0,0,1,1625.05,1169.93Z"/><path class="cls-21" d="M1628.05,1165.86a4.21,4.21,0,0,1,3.27-4A6.31,6.31,0,0,1,1628.05,1165.86Z"/><path class="cls-22" d="M1679,1080.92c0-2,.22-4,2.3-5C1681,1077.73,1680.58,1079.6,1679,1080.92Z"/><path class="cls-23" d="M1685,1066c0-2,.17-4,2.27-5.13C1686.84,1062.68,1686.57,1064.61,1685,1066Z"/><path class="cls-24" d="M1575.19,1225.44c-.81,1.83-1.56,2.64-2.85,3C1572.1,1226.68,1573.34,1226.29,1575.19,1225.44Z"/><path class="cls-25" d="M909.21,1012.91c1.15,15.82-2.16,30.94-6.54,46-8.22,28.34-17.21,56.48-23,85.49a481.31,481.31,0,0,0-8.34,65.66c-1.74,29.06-2.66,58.16-1.88,87.28.62,22.77,1.5,45.53,4.57,68.14a7,7,0,0,1-3.85.8c-45.3,1.58-90.22-1.43-134.28-12.55-33.22-8.39-64.27-21.65-91-43.82-35.84-29.78-54.69-67.28-51.58-114.44,2.06-31.24,12.33-60,27.53-87.26a310.89,310.89,0,0,1,35.52-50.58c11.2-13.06,19.81-27.53,22.88-44.78,1.88-1.82,4.3-1.61,6.6-1.61q108.36-.06,216.71,0C904.92,1011.26,907.28,1011.25,909.21,1012.91Z"/><path class="cls-26" d="M909.21,1012.91l-229.94,0c1.59-19.27-6.33-35.62-15.75-51.54-11.6-19.61-24.82-38.26-35.16-58.59-10-19.59-18.81-39.73-21.92-61.7-3.4-24.09,1.83-46.63,14.29-67.43,14.39-24,35.35-41.32,58.59-56.1,39.92-25.39,84-40.51,129.65-51.34A427.64,427.64,0,0,1,870.38,656c2.6-.23,4.22.1,3.9,3.16-5.78,47.56-5.58,95.28-4,143.07,1.82,53.57,13.05,105.31,29.23,156.18,4.72,14.85,9.5,29.76,9.8,45.59C909.4,1006.94,909.26,1009.93,909.21,1012.91Z"/><path class="cls-25" d="M1404.07,1184c2.13,1.78,4.88.16,7.64,1.44-3.79,6.52-7.4,13-11.26,19.33a335.78,335.78,0,0,1-63.1,76c-32.26,28.75-68.92,50-111,61.25-17,4.57-34.36,6.83-51.78,8.78q-13.3,1.48-26.62,2.92c10.49-22.14,16-45.55,18-69.88,2.92-34.78-1-68.74-13-101.54-21.75-59.92-63.44-99.4-123.93-119.23-13.28-4.35-27-6.92-40.56-10.09a78.28,78.28,0,0,1-20.4-7.82c-6.35-3.53-11-8.39-12.62-15.8-1.47-6.82-3-13.6-1.52-20.63,2.81,2.61,6.28,2.63,9.82,2.63,27.81,0,55.62-.15,83.43,0,14,.09,27.92.14,41.88.78,9.12.42,18.29.13,27.44.13q161.37.09,322.74.08c3.25,0,6.72-.84,9.61,1.58-.8,36.36-5.54,71.91-23.2,104.46-15.79,29.08-40.29,45.17-73.46,47.82-2.35.19-6.51-.5-6.72,1.38-.36,3.25,3.63,4.14,6.25,5.32C1368.37,1180.36,1386.06,1182.92,1404.07,1184Z"/><path class="cls-26" d="M1448.88,1013.88q-169.7,0-339.38-.14c-9.69,0-19.43-.11-29.16-.53-21.81-.94-43.7-.3-65.55-.3-18.66,0-37.32-.08-56,.08-3.37,0-5-.87-4.85-4.34.4-16,7.9-25.27,24.76-30.78C995,972.56,1012,970.2,1028.35,965c61-19.43,102.69-59.14,124.56-119.18,12.47-34.24,16.23-69.66,12.53-106A224.31,224.31,0,0,0,1150,678.26c1.55-1.92,3.75-1.28,5.59-1.1,29.14,2.92,58.28,5.66,86.19,15.64a285.22,285.22,0,0,1,85.55,48c33.5,27.45,60.44,60.37,81.69,98-18,.77-35.79,2.76-52.76,9.32-4.27,1.66-8.69,3.19-11.71,7.51,5.19,2.08,10.43,1.26,15.44,2,29.16,4.53,50.51,20.06,65,45.41,12,21.11,17.84,44.22,21.1,68.07C1448,985.32,1449.51,999.53,1448.88,1013.88Z"/><path class="cls-26" d="M1120.09,674.09c12.13,11.9,17.91,26.9,20.83,43.21,7.32,40.94,6.12,81.51-7.3,121.09-15.31,45.11-45.68,76.13-90.49,92.59-33.68,12.37-68.09,16-103.33,7.15-6.88-1.73-11.71-5.92-15.71-11.48-7.19-10-11.44-21.39-14.91-33-14.63-49-18.32-99.18-14.27-150,1.83-23,4-46,10.09-68.39a74.4,74.4,0,0,1,8.08-19.2,10.78,10.78,0,0,1,7.73-1.08,444,444,0,0,0,53.5,6.21c16.27.75,32.6,1.07,48.87-.35a42,42,0,0,1,10.45.12c17.24,3.88,34.78,5.71,52.3,7.66,9.59,1.07,19.15,2.34,28.78,3.07C1116.85,671.83,1118.41,673,1120.09,674.09Z"/><path class="cls-25" d="M908.26,1363.24c-12.8-42.53-15.56-86.18-14.43-130.24.86-33.37,5.53-66.19,15.18-98.21a163.93,163.93,0,0,1,11.3-27.63c5.59-10.87,14-17.21,26.17-19.24,49.63-8.29,95.41,1.32,136.4,30.5,27.15,19.33,43.67,46.64,53.1,78.26,8.41,28.2,10.51,57.09,8.46,86.38-1.09,15.64-3.17,31.11-8.47,45.9a66.62,66.62,0,0,1-18.78,27.79c-5.53,2.82-11.64,2.27-17.53,2.86-14.65,1.47-29.21,3.76-43.93,4.65-27.73-2.5-55.53-2.18-83.32-1.87-16.62.19-33.22,1.4-49.82,2.56C917.81,1365.29,912.65,1366.92,908.26,1363.24Z"/><path class="cls-3" d="M908.26,1363.24c4.25,1.49,8.6.51,12.84.18a982.35,982.35,0,0,1,100.34-2.63c11.47.28,22.92,1.33,34.38,2,10.6.32,21,1.65,30.72,6.22,2.43,1.15,5.49,1.85,5.59,5.46-4.85,3.72-10.86,5.16-16.07,8.17-1.77-1.22-3.23.53-4.87.5-15.27,3.16-30.77,5.32-45.44,10.88-1.47.79-3.35.5-4.65,1.74-4.2,2.17-8.79.81-13.17,1.26-19.78,2-39.6,3.4-59.31-1C929.71,1391.74,916.42,1380.68,908.26,1363.24Z"/><path class="cls-3" d="M1034.05,662c-14.42.81-28.84,1.39-43.29,1.29-23.47-.16-46.65-3-69.77-6.64-2.6-.41-5.27-.38-7.91-.56,10.64-16.46,26.67-23.35,45.33-26a160.44,160.44,0,0,1,34.82-.69c30.23,2.3,60.28,6.13,88.28,19,1.51.69,3.39.22,4.58,1.66-3,3.49-7.5,4.09-11.53,5.3a219.08,219.08,0,0,1-32.09,6.82C1039.65,662.55,1036.86,662,1034.05,662Z"/><path class="cls-7" d="M1034.05,662c13-2.06,26.16-3.79,38.84-7.65,4.42-1.35,8.8-2.84,13.2-4.27,11.94,6.05,23.59,12.53,32.84,22.5a18,18,0,0,1,1.16,1.56c-8.19-1-16.37-2.12-24.58-3-20.21-2-40.4-4.27-60.34-8.25C1034.75,662.8,1034.42,662.27,1034.05,662Z"/><path class="cls-27" d="M1092.13,1374.5c-7.24-6.63-16.58-7.79-25.6-9.75-3.54-.78-7.13-1.29-10.71-1.93,14.87-1.66,29.73-3.4,44.61-5,5.56-.58,11.17-.75,16.76-1.11A87.49,87.49,0,0,1,1092.13,1374.5Z"/><path class="cls-28" d="M1024.22,1393.82c15.26-6.66,31.38-9.66,47.84-11.24.27-.14.54-.23.71-.11.44.28.26.65.06,1-15.54,5.16-31.27,9.54-47.6,11.41C1024.21,1395.18,1024,1394.75,1024.22,1393.82Z"/><path class="cls-29" d="M1024.22,1393.82l1,1.06c-1.19,1.14-2.71.79-4.13.91C1021.13,1393.53,1023.24,1394.57,1024.22,1393.82Z"/><path class="cls-30" d="M1072.83,1383.47c-.25-.3-.51-.59-.77-.89,1.36-1.09,2.7-1.53,4,.09Z"/><path class="cls-31" d="M1031.85,514c24.77,1.18,46,9.49,62.27,29.3,7.58,9.23,15.62,18.11,22.33,28a87.86,87.86,0,0,1,13.17,31c1.29,6-1.21,10.67-7.14,11.45-10.55,1.4-21,.93-30-5.94-4.7-3.59-7.87-8.63-11.08-13.37-10.58-15.62-28.68-19.15-42.66-7.16-10.08,8.64-29,8.65-40,1.06-19.24-13.27-24.42-46.51.41-64.21A51.53,51.53,0,0,1,1031.85,514Z"/><path class="cls-31" d="M1025.28,1509c-8.57.59-21.13-4.38-31.64-15.24-12-12.44-14.54-27.55-7.49-43.49,5.76-13,15.73-20.15,29.39-21.28,8.16-.67,16.61.64,23.2,6.8,10,9.31,27,9.1,37-.27,6.11-5.69,10-13.1,15.74-19.2,6.36-6.79,25.3-9.75,33.78-6,4.38,1.94,5.25,5.74,4.39,10-3.25,16-11,29.77-21.16,42.31-6.14,7.61-12.31,15.19-19.12,22.24C1073.6,1501.25,1054.13,1508.44,1025.28,1509Z"/><rect class="cls-32" width="2000" height="2000" transform="translate(0 2000) rotate(-90)"/></g></g></svg>